%TF.GenerationSoftware,KiCad,Pcbnew,8.0.1*%
%TF.CreationDate,2024-09-03T09:14:14-03:00*%
%TF.ProjectId,USB-thermometer,5553422d-7468-4657-926d-6f6d65746572,rev?*%
%TF.SameCoordinates,Original*%
%TF.FileFunction,Copper,L1,Top*%
%TF.FilePolarity,Positive*%
%FSLAX46Y46*%
G04 Gerber Fmt 4.6, Leading zero omitted, Abs format (unit mm)*
G04 Created by KiCad (PCBNEW 8.0.1) date 2024-09-03 09:14:14*
%MOMM*%
%LPD*%
G01*
G04 APERTURE LIST*
G04 Aperture macros list*
%AMRoundRect*
0 Rectangle with rounded corners*
0 $1 Rounding radius*
0 $2 $3 $4 $5 $6 $7 $8 $9 X,Y pos of 4 corners*
0 Add a 4 corners polygon primitive as box body*
4,1,4,$2,$3,$4,$5,$6,$7,$8,$9,$2,$3,0*
0 Add four circle primitives for the rounded corners*
1,1,$1+$1,$2,$3*
1,1,$1+$1,$4,$5*
1,1,$1+$1,$6,$7*
1,1,$1+$1,$8,$9*
0 Add four rect primitives between the rounded corners*
20,1,$1+$1,$2,$3,$4,$5,0*
20,1,$1+$1,$4,$5,$6,$7,0*
20,1,$1+$1,$6,$7,$8,$9,0*
20,1,$1+$1,$8,$9,$2,$3,0*%
G04 Aperture macros list end*
%TA.AperFunction,SMDPad,CuDef*%
%ADD10O,2.748280X1.998980*%
%TD*%
%TA.AperFunction,SMDPad,CuDef*%
%ADD11O,1.016000X2.032000*%
%TD*%
%TA.AperFunction,SMDPad,CuDef*%
%ADD12C,1.143000*%
%TD*%
%TA.AperFunction,SMDPad,CuDef*%
%ADD13RoundRect,0.300000X-0.700000X-0.300000X0.700000X-0.300000X0.700000X0.300000X-0.700000X0.300000X0*%
%TD*%
%TA.AperFunction,ComponentPad*%
%ADD14O,3.200000X1.300000*%
%TD*%
%TA.AperFunction,ComponentPad*%
%ADD15R,1.700000X1.700000*%
%TD*%
%TA.AperFunction,ComponentPad*%
%ADD16O,1.700000X1.700000*%
%TD*%
%TA.AperFunction,ViaPad*%
%ADD17C,0.600000*%
%TD*%
%TA.AperFunction,Conductor*%
%ADD18C,1.000000*%
%TD*%
%TA.AperFunction,Conductor*%
%ADD19C,0.200000*%
%TD*%
G04 APERTURE END LIST*
D10*
%TO.P,U1,1,PA02_A0_D0*%
%TO.N,unconnected-(U1-PA02_A0_D0-Pad1)*%
X91918710Y-68500490D03*
%TO.P,U1,2,PA4_A1_D1*%
%TO.N,unconnected-(U1-PA4_A1_D1-Pad2)*%
X91918710Y-71040490D03*
%TO.P,U1,3,PA10_A2_D2*%
%TO.N,unconnected-(U1-PA10_A2_D2-Pad3)*%
X91918710Y-73580490D03*
%TO.P,U1,4,PA11_A3_D3*%
%TO.N,unconnected-(U1-PA11_A3_D3-Pad4)*%
X91918710Y-76120490D03*
%TO.P,U1,5,PA8_A4_D4_SDA*%
%TO.N,SDA*%
X91918710Y-78660490D03*
%TO.P,U1,6,PA9_A5_D5_SCL*%
%TO.N,SCL*%
X91918710Y-81200490D03*
%TO.P,U1,7,PB08_A6_D6_TX*%
%TO.N,unconnected-(U1-PB08_A6_D6_TX-Pad7)*%
X91918710Y-83740490D03*
%TO.P,U1,8,PB09_A7_D7_RX*%
%TO.N,unconnected-(U1-PB09_A7_D7_RX-Pad8)*%
X108083270Y-83740490D03*
%TO.P,U1,9,PA7_A8_D8_SCK*%
%TO.N,unconnected-(U1-PA7_A8_D8_SCK-Pad9)*%
X108083270Y-81200490D03*
%TO.P,U1,10,PA5_A9_D9_MISO*%
%TO.N,unconnected-(U1-PA5_A9_D9_MISO-Pad10)*%
X108083270Y-78660490D03*
%TO.P,U1,11,PA6_A10_D10_MOSI*%
%TO.N,unconnected-(U1-PA6_A10_D10_MOSI-Pad11)*%
X108083270Y-76120490D03*
%TO.P,U1,12,3V3*%
%TO.N,3V3*%
X108083270Y-73580490D03*
%TO.P,U1,13,GND*%
%TO.N,GND*%
X108083270Y-71040490D03*
%TO.P,U1,14,5V*%
%TO.N,5V*%
X108083270Y-68500490D03*
D11*
%TO.P,U1,15,5V*%
%TO.N,unconnected-(U1-5V-Pad15)*%
X98785590Y-84818310D03*
%TO.P,U1,16,GND*%
%TO.N,unconnected-(U1-GND-Pad16)*%
X101335590Y-84818310D03*
D12*
%TO.P,U1,17,PA31_SWDIO*%
%TO.N,unconnected-(U1-PA31_SWDIO-Pad17)*%
X98784393Y-67814123D03*
%TO.P,U1,18,PA30_SWCLK*%
%TO.N,unconnected-(U1-PA30_SWCLK-Pad18)*%
X101324393Y-67814123D03*
%TO.P,U1,19,RESET*%
%TO.N,unconnected-(U1-RESET-Pad19)*%
X98784393Y-70354123D03*
%TO.P,U1,20,GND*%
%TO.N,unconnected-(U1-GND-Pad20)*%
X101324393Y-70354123D03*
%TD*%
D13*
%TO.P,J1,1,VBUS*%
%TO.N,5V*%
X112025000Y-74800000D03*
%TO.P,J1,2,D-*%
%TO.N,unconnected-(J1-D--Pad2)*%
X112025000Y-77300000D03*
%TO.P,J1,3,D+*%
%TO.N,unconnected-(J1-D+-Pad3)*%
X112025000Y-79300000D03*
%TO.P,J1,4,GND*%
%TO.N,GND*%
X112025000Y-81800000D03*
D14*
%TO.P,J1,5,Shield*%
X114625000Y-72450000D03*
X114625000Y-84150000D03*
%TD*%
D15*
%TO.P,J2,1,Pin_1*%
%TO.N,3V3*%
X97800000Y-88700000D03*
D16*
%TO.P,J2,2,Pin_2*%
%TO.N,GND*%
X100340000Y-88700000D03*
%TO.P,J2,3,Pin_3*%
%TO.N,SDA*%
X102880000Y-88700000D03*
%TO.P,J2,4,Pin_4*%
%TO.N,SCL*%
X105420000Y-88700000D03*
%TD*%
D17*
%TO.N,GND*%
X110600000Y-72400000D03*
%TO.N,SCL*%
X94100000Y-81300000D03*
X104000000Y-90100000D03*
%TD*%
D18*
%TO.N,GND*%
X112275000Y-81800000D02*
X114625000Y-84150000D01*
X112025000Y-81800000D02*
X112275000Y-81800000D01*
X110600000Y-72600000D02*
X110500000Y-72500000D01*
X110600000Y-72400000D02*
X110600000Y-72600000D01*
X110400000Y-72400000D02*
X110600000Y-72400000D01*
X109040490Y-71040490D02*
X110400000Y-72400000D01*
X108083270Y-71040490D02*
X109040490Y-71040490D01*
D19*
%TO.N,5V*%
X112025000Y-72442220D02*
X108083270Y-68500490D01*
X112025000Y-74800000D02*
X112025000Y-72442220D01*
%TO.N,SCL*%
X94000490Y-81200490D02*
X94100000Y-81300000D01*
X91918710Y-81200490D02*
X94000490Y-81200490D01*
X104000000Y-90120000D02*
X104020000Y-90100000D01*
X104000000Y-90100000D02*
X104000000Y-90120000D01*
X104020000Y-90100000D02*
X104000000Y-90100000D01*
X105420000Y-88700000D02*
X104020000Y-90100000D01*
%TO.N,SDA*%
X96100000Y-80000000D02*
X94760490Y-78660490D01*
X96100000Y-84800000D02*
X96100000Y-80000000D01*
X98000000Y-86700000D02*
X96100000Y-84800000D01*
X94760490Y-78660490D02*
X91918710Y-78660490D01*
X100880000Y-86700000D02*
X98000000Y-86700000D01*
X102880000Y-88700000D02*
X100880000Y-86700000D01*
%TO.N,3V3*%
X106319510Y-73580490D02*
X108083270Y-73580490D01*
X105600000Y-74300000D02*
X106319510Y-73580490D01*
X106100000Y-85400000D02*
X105600000Y-84900000D01*
X105600000Y-84900000D02*
X105600000Y-74300000D01*
X108200000Y-86000000D02*
X107600000Y-85400000D01*
X108200000Y-90200000D02*
X108200000Y-86000000D01*
X107600000Y-85400000D02*
X106100000Y-85400000D01*
X98600000Y-90800000D02*
X107600000Y-90800000D01*
X97800000Y-90000000D02*
X98600000Y-90800000D01*
X107600000Y-90800000D02*
X108200000Y-90200000D01*
X97800000Y-88700000D02*
X97800000Y-90000000D01*
%TD*%
M02*
