%TF.GenerationSoftware,KiCad,Pcbnew,8.0.1*%
%TF.CreationDate,2024-09-03T09:14:14-03:00*%
%TF.ProjectId,USB-thermometer,5553422d-7468-4657-926d-6f6d65746572,rev?*%
%TF.SameCoordinates,Original*%
%TF.FileFunction,Legend,Top*%
%TF.FilePolarity,Positive*%
%FSLAX46Y46*%
G04 Gerber Fmt 4.6, Leading zero omitted, Abs format (unit mm)*
G04 Created by KiCad (PCBNEW 8.0.1) date 2024-09-03 09:14:14*
%MOMM*%
%LPD*%
G01*
G04 APERTURE LIST*
%ADD10C,0.101600*%
%ADD11C,0.076200*%
%ADD12C,0.150000*%
%ADD13C,0.127000*%
%ADD14C,0.066040*%
%ADD15C,0.254000*%
%ADD16C,0.120000*%
G04 APERTURE END LIST*
D10*
X99742756Y-64354795D02*
X99742756Y-65074462D01*
X99742756Y-65074462D02*
X99785090Y-65159128D01*
X99785090Y-65159128D02*
X99827423Y-65201462D01*
X99827423Y-65201462D02*
X99912090Y-65243795D01*
X99912090Y-65243795D02*
X100081423Y-65243795D01*
X100081423Y-65243795D02*
X100166090Y-65201462D01*
X100166090Y-65201462D02*
X100208423Y-65159128D01*
X100208423Y-65159128D02*
X100250756Y-65074462D01*
X100250756Y-65074462D02*
X100250756Y-64354795D01*
X101139756Y-65243795D02*
X100631756Y-65243795D01*
X100885756Y-65243795D02*
X100885756Y-64354795D01*
X100885756Y-64354795D02*
X100801089Y-64481795D01*
X100801089Y-64481795D02*
X100716423Y-64566462D01*
X100716423Y-64566462D02*
X100631756Y-64608795D01*
D11*
X93807020Y-76072331D02*
X93894106Y-76101359D01*
X93894106Y-76101359D02*
X94039248Y-76101359D01*
X94039248Y-76101359D02*
X94097306Y-76072331D01*
X94097306Y-76072331D02*
X94126334Y-76043302D01*
X94126334Y-76043302D02*
X94155363Y-75985245D01*
X94155363Y-75985245D02*
X94155363Y-75927188D01*
X94155363Y-75927188D02*
X94126334Y-75869131D01*
X94126334Y-75869131D02*
X94097306Y-75840102D01*
X94097306Y-75840102D02*
X94039248Y-75811073D01*
X94039248Y-75811073D02*
X93923134Y-75782045D01*
X93923134Y-75782045D02*
X93865077Y-75753016D01*
X93865077Y-75753016D02*
X93836048Y-75723988D01*
X93836048Y-75723988D02*
X93807020Y-75665931D01*
X93807020Y-75665931D02*
X93807020Y-75607873D01*
X93807020Y-75607873D02*
X93836048Y-75549816D01*
X93836048Y-75549816D02*
X93865077Y-75520788D01*
X93865077Y-75520788D02*
X93923134Y-75491759D01*
X93923134Y-75491759D02*
X94068277Y-75491759D01*
X94068277Y-75491759D02*
X94155363Y-75520788D01*
X94648848Y-76072331D02*
X94590791Y-76101359D01*
X94590791Y-76101359D02*
X94474677Y-76101359D01*
X94474677Y-76101359D02*
X94416619Y-76072331D01*
X94416619Y-76072331D02*
X94387591Y-76014273D01*
X94387591Y-76014273D02*
X94387591Y-75782045D01*
X94387591Y-75782045D02*
X94416619Y-75723988D01*
X94416619Y-75723988D02*
X94474677Y-75694959D01*
X94474677Y-75694959D02*
X94590791Y-75694959D01*
X94590791Y-75694959D02*
X94648848Y-75723988D01*
X94648848Y-75723988D02*
X94677877Y-75782045D01*
X94677877Y-75782045D02*
X94677877Y-75840102D01*
X94677877Y-75840102D02*
X94387591Y-75898159D01*
X95171362Y-76072331D02*
X95113305Y-76101359D01*
X95113305Y-76101359D02*
X94997191Y-76101359D01*
X94997191Y-76101359D02*
X94939133Y-76072331D01*
X94939133Y-76072331D02*
X94910105Y-76014273D01*
X94910105Y-76014273D02*
X94910105Y-75782045D01*
X94910105Y-75782045D02*
X94939133Y-75723988D01*
X94939133Y-75723988D02*
X94997191Y-75694959D01*
X94997191Y-75694959D02*
X95113305Y-75694959D01*
X95113305Y-75694959D02*
X95171362Y-75723988D01*
X95171362Y-75723988D02*
X95200391Y-75782045D01*
X95200391Y-75782045D02*
X95200391Y-75840102D01*
X95200391Y-75840102D02*
X94910105Y-75898159D01*
X95693876Y-76072331D02*
X95635819Y-76101359D01*
X95635819Y-76101359D02*
X95519705Y-76101359D01*
X95519705Y-76101359D02*
X95461647Y-76072331D01*
X95461647Y-76072331D02*
X95432619Y-76014273D01*
X95432619Y-76014273D02*
X95432619Y-75782045D01*
X95432619Y-75782045D02*
X95461647Y-75723988D01*
X95461647Y-75723988D02*
X95519705Y-75694959D01*
X95519705Y-75694959D02*
X95635819Y-75694959D01*
X95635819Y-75694959D02*
X95693876Y-75723988D01*
X95693876Y-75723988D02*
X95722905Y-75782045D01*
X95722905Y-75782045D02*
X95722905Y-75840102D01*
X95722905Y-75840102D02*
X95432619Y-75898159D01*
X96245419Y-76101359D02*
X96245419Y-75491759D01*
X96245419Y-76072331D02*
X96187361Y-76101359D01*
X96187361Y-76101359D02*
X96071247Y-76101359D01*
X96071247Y-76101359D02*
X96013190Y-76072331D01*
X96013190Y-76072331D02*
X95984161Y-76043302D01*
X95984161Y-76043302D02*
X95955133Y-75985245D01*
X95955133Y-75985245D02*
X95955133Y-75811073D01*
X95955133Y-75811073D02*
X95984161Y-75753016D01*
X95984161Y-75753016D02*
X96013190Y-75723988D01*
X96013190Y-75723988D02*
X96071247Y-75694959D01*
X96071247Y-75694959D02*
X96187361Y-75694959D01*
X96187361Y-75694959D02*
X96245419Y-75723988D01*
X96971133Y-76072331D02*
X97058219Y-76101359D01*
X97058219Y-76101359D02*
X97203361Y-76101359D01*
X97203361Y-76101359D02*
X97261419Y-76072331D01*
X97261419Y-76072331D02*
X97290447Y-76043302D01*
X97290447Y-76043302D02*
X97319476Y-75985245D01*
X97319476Y-75985245D02*
X97319476Y-75927188D01*
X97319476Y-75927188D02*
X97290447Y-75869131D01*
X97290447Y-75869131D02*
X97261419Y-75840102D01*
X97261419Y-75840102D02*
X97203361Y-75811073D01*
X97203361Y-75811073D02*
X97087247Y-75782045D01*
X97087247Y-75782045D02*
X97029190Y-75753016D01*
X97029190Y-75753016D02*
X97000161Y-75723988D01*
X97000161Y-75723988D02*
X96971133Y-75665931D01*
X96971133Y-75665931D02*
X96971133Y-75607873D01*
X96971133Y-75607873D02*
X97000161Y-75549816D01*
X97000161Y-75549816D02*
X97029190Y-75520788D01*
X97029190Y-75520788D02*
X97087247Y-75491759D01*
X97087247Y-75491759D02*
X97232390Y-75491759D01*
X97232390Y-75491759D02*
X97319476Y-75520788D01*
X97493647Y-75694959D02*
X97725875Y-75694959D01*
X97580732Y-75491759D02*
X97580732Y-76014273D01*
X97580732Y-76014273D02*
X97609761Y-76072331D01*
X97609761Y-76072331D02*
X97667818Y-76101359D01*
X97667818Y-76101359D02*
X97725875Y-76101359D01*
X98190333Y-75694959D02*
X98190333Y-76101359D01*
X97929075Y-75694959D02*
X97929075Y-76014273D01*
X97929075Y-76014273D02*
X97958104Y-76072331D01*
X97958104Y-76072331D02*
X98016161Y-76101359D01*
X98016161Y-76101359D02*
X98103247Y-76101359D01*
X98103247Y-76101359D02*
X98161304Y-76072331D01*
X98161304Y-76072331D02*
X98190333Y-76043302D01*
X98741876Y-76101359D02*
X98741876Y-75491759D01*
X98741876Y-76072331D02*
X98683818Y-76101359D01*
X98683818Y-76101359D02*
X98567704Y-76101359D01*
X98567704Y-76101359D02*
X98509647Y-76072331D01*
X98509647Y-76072331D02*
X98480618Y-76043302D01*
X98480618Y-76043302D02*
X98451590Y-75985245D01*
X98451590Y-75985245D02*
X98451590Y-75811073D01*
X98451590Y-75811073D02*
X98480618Y-75753016D01*
X98480618Y-75753016D02*
X98509647Y-75723988D01*
X98509647Y-75723988D02*
X98567704Y-75694959D01*
X98567704Y-75694959D02*
X98683818Y-75694959D01*
X98683818Y-75694959D02*
X98741876Y-75723988D01*
X99032161Y-76101359D02*
X99032161Y-75694959D01*
X99032161Y-75491759D02*
X99003133Y-75520788D01*
X99003133Y-75520788D02*
X99032161Y-75549816D01*
X99032161Y-75549816D02*
X99061190Y-75520788D01*
X99061190Y-75520788D02*
X99032161Y-75491759D01*
X99032161Y-75491759D02*
X99032161Y-75549816D01*
X99409533Y-76101359D02*
X99351476Y-76072331D01*
X99351476Y-76072331D02*
X99322447Y-76043302D01*
X99322447Y-76043302D02*
X99293419Y-75985245D01*
X99293419Y-75985245D02*
X99293419Y-75811073D01*
X99293419Y-75811073D02*
X99322447Y-75753016D01*
X99322447Y-75753016D02*
X99351476Y-75723988D01*
X99351476Y-75723988D02*
X99409533Y-75694959D01*
X99409533Y-75694959D02*
X99496619Y-75694959D01*
X99496619Y-75694959D02*
X99554676Y-75723988D01*
X99554676Y-75723988D02*
X99583705Y-75753016D01*
X99583705Y-75753016D02*
X99612733Y-75811073D01*
X99612733Y-75811073D02*
X99612733Y-75985245D01*
X99612733Y-75985245D02*
X99583705Y-76043302D01*
X99583705Y-76043302D02*
X99554676Y-76072331D01*
X99554676Y-76072331D02*
X99496619Y-76101359D01*
X99496619Y-76101359D02*
X99409533Y-76101359D01*
X100280390Y-75491759D02*
X100686790Y-76101359D01*
X100686790Y-75491759D02*
X100280390Y-76101359D01*
X100919018Y-76101359D02*
X100919018Y-75491759D01*
X101180276Y-75927188D02*
X101470562Y-75927188D01*
X101122219Y-76101359D02*
X101325419Y-75491759D01*
X101325419Y-75491759D02*
X101528619Y-76101359D01*
X101847933Y-75491759D02*
X101964047Y-75491759D01*
X101964047Y-75491759D02*
X102022104Y-75520788D01*
X102022104Y-75520788D02*
X102080161Y-75578845D01*
X102080161Y-75578845D02*
X102109190Y-75694959D01*
X102109190Y-75694959D02*
X102109190Y-75898159D01*
X102109190Y-75898159D02*
X102080161Y-76014273D01*
X102080161Y-76014273D02*
X102022104Y-76072331D01*
X102022104Y-76072331D02*
X101964047Y-76101359D01*
X101964047Y-76101359D02*
X101847933Y-76101359D01*
X101847933Y-76101359D02*
X101789876Y-76072331D01*
X101789876Y-76072331D02*
X101731818Y-76014273D01*
X101731818Y-76014273D02*
X101702790Y-75898159D01*
X101702790Y-75898159D02*
X101702790Y-75694959D01*
X101702790Y-75694959D02*
X101731818Y-75578845D01*
X101731818Y-75578845D02*
X101789876Y-75520788D01*
X101789876Y-75520788D02*
X101847933Y-75491759D01*
X102805876Y-76072331D02*
X102892962Y-76101359D01*
X102892962Y-76101359D02*
X103038104Y-76101359D01*
X103038104Y-76101359D02*
X103096162Y-76072331D01*
X103096162Y-76072331D02*
X103125190Y-76043302D01*
X103125190Y-76043302D02*
X103154219Y-75985245D01*
X103154219Y-75985245D02*
X103154219Y-75927188D01*
X103154219Y-75927188D02*
X103125190Y-75869131D01*
X103125190Y-75869131D02*
X103096162Y-75840102D01*
X103096162Y-75840102D02*
X103038104Y-75811073D01*
X103038104Y-75811073D02*
X102921990Y-75782045D01*
X102921990Y-75782045D02*
X102863933Y-75753016D01*
X102863933Y-75753016D02*
X102834904Y-75723988D01*
X102834904Y-75723988D02*
X102805876Y-75665931D01*
X102805876Y-75665931D02*
X102805876Y-75607873D01*
X102805876Y-75607873D02*
X102834904Y-75549816D01*
X102834904Y-75549816D02*
X102863933Y-75520788D01*
X102863933Y-75520788D02*
X102921990Y-75491759D01*
X102921990Y-75491759D02*
X103067133Y-75491759D01*
X103067133Y-75491759D02*
X103154219Y-75520788D01*
X103386447Y-75927188D02*
X103676733Y-75927188D01*
X103328390Y-76101359D02*
X103531590Y-75491759D01*
X103531590Y-75491759D02*
X103734790Y-76101359D01*
X103937989Y-76101359D02*
X103937989Y-75491759D01*
X103937989Y-75491759D02*
X104141189Y-75927188D01*
X104141189Y-75927188D02*
X104344389Y-75491759D01*
X104344389Y-75491759D02*
X104344389Y-76101359D01*
X104634675Y-76101359D02*
X104634675Y-75491759D01*
X104634675Y-75491759D02*
X104779818Y-75491759D01*
X104779818Y-75491759D02*
X104866904Y-75520788D01*
X104866904Y-75520788D02*
X104924961Y-75578845D01*
X104924961Y-75578845D02*
X104953990Y-75636902D01*
X104953990Y-75636902D02*
X104983018Y-75753016D01*
X104983018Y-75753016D02*
X104983018Y-75840102D01*
X104983018Y-75840102D02*
X104953990Y-75956216D01*
X104953990Y-75956216D02*
X104924961Y-76014273D01*
X104924961Y-76014273D02*
X104866904Y-76072331D01*
X104866904Y-76072331D02*
X104779818Y-76101359D01*
X104779818Y-76101359D02*
X104634675Y-76101359D01*
X105215247Y-75549816D02*
X105244275Y-75520788D01*
X105244275Y-75520788D02*
X105302333Y-75491759D01*
X105302333Y-75491759D02*
X105447475Y-75491759D01*
X105447475Y-75491759D02*
X105505533Y-75520788D01*
X105505533Y-75520788D02*
X105534561Y-75549816D01*
X105534561Y-75549816D02*
X105563590Y-75607873D01*
X105563590Y-75607873D02*
X105563590Y-75665931D01*
X105563590Y-75665931D02*
X105534561Y-75753016D01*
X105534561Y-75753016D02*
X105186218Y-76101359D01*
X105186218Y-76101359D02*
X105563590Y-76101359D01*
X106144161Y-76101359D02*
X105795818Y-76101359D01*
X105969989Y-76101359D02*
X105969989Y-75491759D01*
X105969989Y-75491759D02*
X105911932Y-75578845D01*
X105911932Y-75578845D02*
X105853875Y-75636902D01*
X105853875Y-75636902D02*
X105795818Y-75665931D01*
D12*
X122666666Y-70254819D02*
X122666666Y-70969104D01*
X122666666Y-70969104D02*
X122619047Y-71111961D01*
X122619047Y-71111961D02*
X122523809Y-71207200D01*
X122523809Y-71207200D02*
X122380952Y-71254819D01*
X122380952Y-71254819D02*
X122285714Y-71254819D01*
X123666666Y-71254819D02*
X123095238Y-71254819D01*
X123380952Y-71254819D02*
X123380952Y-70254819D01*
X123380952Y-70254819D02*
X123285714Y-70397676D01*
X123285714Y-70397676D02*
X123190476Y-70492914D01*
X123190476Y-70492914D02*
X123095238Y-70540533D01*
X94924819Y-89033333D02*
X95639104Y-89033333D01*
X95639104Y-89033333D02*
X95781961Y-89080952D01*
X95781961Y-89080952D02*
X95877200Y-89176190D01*
X95877200Y-89176190D02*
X95924819Y-89319047D01*
X95924819Y-89319047D02*
X95924819Y-89414285D01*
X95020057Y-88604761D02*
X94972438Y-88557142D01*
X94972438Y-88557142D02*
X94924819Y-88461904D01*
X94924819Y-88461904D02*
X94924819Y-88223809D01*
X94924819Y-88223809D02*
X94972438Y-88128571D01*
X94972438Y-88128571D02*
X95020057Y-88080952D01*
X95020057Y-88080952D02*
X95115295Y-88033333D01*
X95115295Y-88033333D02*
X95210533Y-88033333D01*
X95210533Y-88033333D02*
X95353390Y-88080952D01*
X95353390Y-88080952D02*
X95924819Y-88652380D01*
X95924819Y-88652380D02*
X95924819Y-88033333D01*
D13*
%TO.C,U1*%
X91085590Y-66290690D02*
X91085590Y-86618310D01*
X91085590Y-86618310D02*
X108883370Y-86618310D01*
X91756150Y-65620130D02*
X91085590Y-66290690D01*
D14*
X94768590Y-65536310D02*
X96546590Y-65536310D01*
X94768590Y-68203310D02*
X94768590Y-65536310D01*
X94768590Y-68203310D02*
X96546590Y-68203310D01*
X94768590Y-69600310D02*
X96546590Y-69600310D01*
X94768590Y-72269850D02*
X94768590Y-69600310D01*
X94768590Y-72269850D02*
X96546590Y-72269850D01*
D13*
X95479790Y-71548490D02*
X95479790Y-64195190D01*
X95484870Y-64195190D02*
X104479010Y-64195190D01*
D14*
X96546590Y-68203310D02*
X96546590Y-65536310D01*
X96546590Y-72269850D02*
X96546590Y-69600310D01*
X97435590Y-66298310D02*
X102515590Y-66298310D01*
X97435590Y-68838310D02*
X97435590Y-66298310D01*
X97435590Y-68838310D02*
X102515590Y-68838310D01*
X97435590Y-83443310D02*
X103150590Y-83443310D01*
X97435590Y-85983310D02*
X97435590Y-83443310D01*
X97435590Y-85983310D02*
X103150590Y-85983310D01*
X102515590Y-68838310D02*
X102515590Y-66298310D01*
X103150590Y-85983310D02*
X103150590Y-83443310D01*
X103404590Y-65536310D02*
X105182590Y-65536310D01*
X103404590Y-68203310D02*
X103404590Y-65536310D01*
X103404590Y-68203310D02*
X105182590Y-68203310D01*
X103404590Y-69600310D02*
X105182590Y-69600310D01*
X103404590Y-72269850D02*
X103404590Y-69600310D01*
X103404590Y-72269850D02*
X105182590Y-72269850D01*
D13*
X104479010Y-64195190D02*
X104479010Y-71548490D01*
X104479010Y-71548490D02*
X95479790Y-71548490D01*
D14*
X105182590Y-68203310D02*
X105182590Y-65536310D01*
X105182590Y-72269850D02*
X105182590Y-69600310D01*
D13*
X108883370Y-65620130D02*
X91756150Y-65620130D01*
X108883370Y-86618310D02*
X108883370Y-65620130D01*
D15*
X90323590Y-68457310D02*
G75*
G02*
X90069590Y-68457310I-127000J0D01*
G01*
X90069590Y-68457310D02*
G75*
G02*
X90323590Y-68457310I127000J0D01*
G01*
D16*
%TO.C,J1*%
X110600000Y-73940000D02*
X110600000Y-74400000D01*
X110600000Y-73940000D02*
X112700000Y-73940000D01*
X111080000Y-82660000D02*
X112700000Y-82660000D01*
X112700000Y-72900000D02*
X112700000Y-73940000D01*
X112700000Y-82660000D02*
X112700000Y-83700000D01*
X116485000Y-72190000D02*
X116755000Y-72190000D01*
X116485000Y-84410000D02*
X116755000Y-84410000D01*
%TO.C,J2*%
X106750000Y-90030000D02*
X106750000Y-87370000D01*
X99070000Y-90030000D02*
X106750000Y-90030000D01*
X99070000Y-90030000D02*
X99070000Y-87370000D01*
X99070000Y-87370000D02*
X106750000Y-87370000D01*
X97800000Y-90030000D02*
X96470000Y-90030000D01*
X96470000Y-90030000D02*
X96470000Y-88700000D01*
%TD*%
M02*
